HIERARCHY
ROOT pelvis
{
  OFFSET 0 100 0
  CHANNELS 6 Xposition Yposition Zposition Zrotation Xrotation Yrotation
  JOINT pelvis_right_femur
  {
    OFFSET -10.78128 -3.44521 -0.5502486
    CHANNELS 3 Zrotation Xrotation Yrotation
    JOINT right_femur_tibia
    {
      OFFSET -0.8047443 -44.0398 -0.1307829
      CHANNELS 3 Zrotation Xrotation Yrotation
      JOINT right_tibia_foot
      {
        OFFSET 3.006224 -47.83518 -5
        CHANNELS 3 Zrotation Xrotation Yrotation
        End Site
        {
          OFFSET 0 -5 15
        }
      }
    }
  }
  JOINT pelvis_left_femur
  {
    OFFSET 10.78128 -3.44521 -0.5502486
    CHANNELS 3 Zrotation Xrotation Yrotation
    JOINT left_femur_tibia
    {
      OFFSET 0.8047443 -44.0398 -0.1307829
      CHANNELS 3 Zrotation Xrotation Yrotation
      JOINT left_tibia_foot
      {
        OFFSET -4.370144 -48.10324 -4.275266
        CHANNELS 3 Zrotation Xrotation Yrotation
        End Site
        {
          OFFSET 0 -5 15
        }
      }
    }
  }
  JOINT pelvis_spine1
  {
    OFFSET 0 6.468898 -3.129235
    CHANNELS 3 Zrotation Xrotation Yrotation
    JOINT spine1
    {
      OFFSET 0 23.15396 4.99043
      CHANNELS 3 Zrotation Xrotation Yrotation
      JOINT spine2
      {
        OFFSET 0 20.79997 -5.064912
        CHANNELS 3 Zrotation Xrotation Yrotation
        JOINT neck
        {
          OFFSET 0 14.38658 9.616178
          CHANNELS 3 Zrotation Xrotation Yrotation
          End Site
          {
            OFFSET 0 20 0
          }
        }
      }
      JOINT right_manubrium
      {
        OFFSET -5.722621 16.35077 3.967754
        CHANNELS 3 Zrotation Xrotation Yrotation
        JOINT right_clavicle
        {
          OFFSET -13.16364 1.694482 -4.693211
          CHANNELS 3 Zrotation Xrotation Yrotation
          JOINT right_humerus
          {
            OFFSET -28.5034 -0.3100689 -2.792744
            CHANNELS 3 Zrotation Xrotation Yrotation
            JOINT right_radius
            {
              OFFSET -25.15693 0.02248979 -1.271978
              CHANNELS 3 Zrotation Xrotation Yrotation
              End Site
              {
                OFFSET -15 0 0
              }
            }
          }
        }
      }
      JOINT left_manubrium
      {
        OFFSET 5.722621 16.35077 3.967754
        CHANNELS 3 Zrotation Xrotation Yrotation
        JOINT left_clavicle
        {
          OFFSET 13.16364 1.694482 -4.693211
          CHANNELS 3 Zrotation Xrotation Yrotation
          JOINT left_humerus
          {
            OFFSET 29.39168 -1.063119 -2.237045
            CHANNELS 3 Zrotation Xrotation Yrotation
            JOINT left_radius
            {
              OFFSET 24.59957 -0.9528479 0.9047498
              CHANNELS 3 Zrotation Xrotation Yrotation
              End Site
              {
                OFFSET 15 -0 -0
              }
            }
          }
        }
      }
    }
  }
}
MOTION
Frames: 6
Frame Time: 0.0416666666667
19.39181 103.2706 240.9153 0.8418527 -6.453713 -0.1361392 2.784176 11.36254 4.180386 4.395239e-12 27.10007 -2.012536e-12 -3.389069 -10.58355 -1.66627 -2.046916 -18.31686 -8.648628 -4.706956e-12 24.6793 2.556588e-12 0.3640196 -5.806375 20.95581 -1.632928 -0.4168593 7.326274 -0.2114003 11.00612 -3.711368 2.056644 22.56057 5.14622 2.460032 -18.94229 7.083135 1.909113 -22.25044 11.68599 82.89007 27.00501 -7.396022 3.05338e-13 -1.378302e-13 21.11296 -21.49054 11.77853 12.94197 3.715796 -17.10038 -3.620768 -93.5814 20.14206 25.36846 -2.454589e-13 2.350011e-14 -9.490921 4.298631 10.70488 8.574811
20.11555 103.3426 246.3569 0.7757412 -6.253579 -0.4630309 2.870459 9.092587 4.111467 3.899772e-12 27.07558 -1.78491e-12 -3.512139 -10.19982 -1.880365 -2.39082 -16.26308 -9.093845 -4.170861e-12 24.55041 2.265794e-12 0.4908931 -6.529581 20.79511 -1.677278 -0.4620037 7.070221 -0.06118272 10.97597 -3.99424 2.031259 22.61987 5.264329 2.511971 -19.17054 7.193982 2.022875 -21.93597 11.69134 83.65496 27.31862 -8.427 2.680814e-13 -1.245952e-13 20.42235 -21.11118 11.79267 12.61909 3.871706 -17.45041 -3.683978 -93.5014 20.38954 24.64731 -2.175977e-13 2.279101e-14 -10.40887 4.506049 10.90126 8.390126
20.72466 103.4135 251.746 0.7021358 -5.940696 -0.7354301 2.999794 5.578082 4.014686 3.13347e-12 27.04162 -1.433322e-12 -3.700252 -9.60619 -2.210243 -2.887876 -13.08099 -9.757236 -3.343615e-12 24.35437 1.818996e-12 0.6841161 -7.651557 20.55319 -1.746623 -0.5316241 6.674616 0.1711834 10.92953 -4.432738 1.991812 22.71496 5.448159 2.59406 -19.52666 7.367568 2.199304 -21.45209 11.70031 84.87582 27.78206 -10.04055 2.10704e-13 -1.032106e-13 19.35573 -20.52682 11.81201 12.12095 4.113421 -17.99544 -3.780612 -93.39118 20.77042 23.53438 -1.745552e-13 2.082312e-14 -11.83209 4.829395 11.20582 8.103705
21.1974 103.4798 257.034 0.6223583 -5.501531 -0.9349989 3.143421 1.014809 3.883335 2.125914e-12 26.84605 -9.691737e-13 -3.915257 -8.786051 -2.617736 -3.448785 -8.90146 -10.51356 -2.259794e-12 23.96494 1.234736e-12 0.9142153 -9.05822 20.13119 -1.827164 -0.6171598 6.127054 0.4664531 10.80606 -4.972152 1.935363 22.70952 5.654961 2.678667 -19.87701 7.546351 2.400252 -20.70967 11.63768 85.94983 28.25994 -11.95951 1.360265e-13 -7.358039e-14 17.87194 -19.6498 11.77556 11.39824 4.404177 -18.59699 -3.884106 -92.68661 21.26936 21.88746 -1.182732e-13 1.651924e-14 -13.60058 5.225965 11.53153 7.688419
21.53235 103.5338 262.1965 0.5468283 -5.014371 -1.0535 3.279782 -3.865914 3.748064 1.045661e-12 26.55705 -4.742851e-13 -4.125891 -7.882215 -3.040398 -3.974933 -4.404218 -11.24957 -1.101897e-12 23.47733 6.162937e-13 1.141626 -10.53811 19.62609 -1.908853 -0.7056353 5.52349 0.7775783 10.63925 -5.532465 1.872662 22.63566 5.859098 2.757842 -20.19262 7.713188 2.601366 -19.85576 11.53048 86.84487 28.70006 -13.9253 5.657981e-14 -3.954842e-14 16.23289 -18.65071 11.6956 10.58652 4.703003 -19.18465 -3.981903 -91.63078 21.78208 20.00477 -5.80485e-14 9.940232e-15 -15.45014 5.639429 11.84135 7.22021
21.74068 103.5729 267.221 0.4800701 -4.528315 -1.09232 3.394653 -8.563539 3.620017 5.128915e-15 26.19783 -2.165093e-15 -4.30936 -6.985509 -3.434351 -4.418389 -0.04987214 -11.89592 9.723957e-15 22.93582 2.976204e-14 1.340146 -11.93765 19.08371 -1.982917 -0.7878049 4.924397 1.071891 10.44368 -6.054612 1.810329 22.49549 6.038041 2.821956 -20.43646 7.848592 2.782044 -18.97322 11.38694 87.44119 29.06686 -15.72494 -1.937864e-14 -4.40245e-15 14.60246 -17.62811 11.57536 9.767123 4.978451 -19.69355 -4.063583 -90.3058 22.24017 18.06333 -9.415426e-17 1.735992e-15 -17.18773 6.026065 12.10043 6.745774
